# Blender v2.79 (sub 0) OBJ File: ''
# www.blender.org
o cube
v -0.500000 0.500000 -0.500000
v -0.500000 0.500000 0.500000
v 0.500000 0.500000 0.500000
v 0.500000 0.500000 -0.500000
v -0.500000 -0.500000 -0.500000
v -0.500000 -0.500000 0.500000
v 0.500000 -0.500000 0.500000
v 0.500000 -0.500000 -0.500000
vt 0.000000 0.333356
vt 0.000000 0.000022
vt 1.000000 0.000039
vt 1.000000 0.333373
vt 0.000000 0.666555
vt 0.000000 0.333221
vt 1.000000 0.333238
vt 1.000000 0.666572
vt 0.000000 0.666555
vt 0.000000 0.333221
vt 1.000000 0.333238
vt 1.000000 0.666572
vt 0.000000 0.666555
vt 0.000000 0.333221
vt 1.000000 0.333238
vt 1.000000 0.666572
vt 0.000000 0.666636
vt 0.000000 0.333221
vt 1.000000 0.333238
vt 1.000000 0.666572
vt 0.000000 0.999981
vt 0.000000 0.666648
vt 1.000000 0.666665
vt 1.000000 0.999998
vn 0.0000 1.0000 0.0000
vn -1.0000 -0.0000 0.0000
vn 1.0000 -0.0000 0.0000
vn 0.0000 0.0000 -1.0000
vn 0.0000 -0.0000 1.0000
vn 0.0000 -1.0000 -0.0000
s 1
f 1/1/1 2/2/1 3/3/1
f 1/1/1 3/3/1 4/4/1
f 1/5/2 5/6/2 6/7/2
f 1/5/2 6/7/2 2/8/2
f 3/9/3 7/10/3 8/11/3
f 3/9/3 8/11/3 4/12/3
f 4/13/4 8/14/4 5/15/4
f 4/13/4 5/15/4 1/16/4
f 2/17/5 6/18/5 7/19/5
f 2/17/5 7/19/5 3/20/5
f 6/21/6 5/22/6 8/23/6
f 6/21/6 8/23/6 7/24/6
